<mxfile host="app.diagrams.net" modified="2022-09-28T02:10:53.640Z" agent="5.0 (Windows NT 10.0; Win64; x64) AppleWebKit/537.36 (KHTML, like Gecko) Chrome/105.0.0.0 Safari/537.36 Edg/105.0.1343.50" etag="TbcjEsmRMqQ7YiqHlh6R" version="20.3.7" type="github">
  <diagram id="QodtKJ0WpxkxiiMa_FYi" name="第 1 页">
    <mxGraphModel dx="2013" dy="1121" grid="1" gridSize="10" guides="1" tooltips="1" connect="1" arrows="1" fold="1" page="1" pageScale="1" pageWidth="827" pageHeight="1169" math="0" shadow="0">
      <root>
        <mxCell id="0" />
        <mxCell id="1" parent="0" />
        <mxCell id="RyjwN8t8nTTDkqUux6qz-8" style="edgeStyle=orthogonalEdgeStyle;rounded=0;orthogonalLoop=1;jettySize=auto;html=1;exitX=1;exitY=0.5;exitDx=0;exitDy=0;entryX=0;entryY=0.5;entryDx=0;entryDy=0;fontSize=24;" edge="1" parent="1" source="RyjwN8t8nTTDkqUux6qz-1" target="RyjwN8t8nTTDkqUux6qz-4">
          <mxGeometry relative="1" as="geometry" />
        </mxCell>
        <mxCell id="RyjwN8t8nTTDkqUux6qz-1" value="&lt;font style=&quot;font-size: 24px;&quot;&gt;保密柜1&lt;/font&gt;" style="rounded=1;whiteSpace=wrap;html=1;" vertex="1" parent="1">
          <mxGeometry x="100" y="210" width="120" height="60" as="geometry" />
        </mxCell>
        <mxCell id="RyjwN8t8nTTDkqUux6qz-9" style="edgeStyle=orthogonalEdgeStyle;rounded=0;orthogonalLoop=1;jettySize=auto;html=1;exitX=1;exitY=0.5;exitDx=0;exitDy=0;fontSize=24;" edge="1" parent="1" source="RyjwN8t8nTTDkqUux6qz-2">
          <mxGeometry relative="1" as="geometry">
            <mxPoint x="350" y="340" as="targetPoint" />
          </mxGeometry>
        </mxCell>
        <mxCell id="RyjwN8t8nTTDkqUux6qz-2" value="&lt;font style=&quot;font-size: 24px;&quot;&gt;保密柜2&lt;/font&gt;" style="rounded=1;whiteSpace=wrap;html=1;" vertex="1" parent="1">
          <mxGeometry x="100" y="310" width="120" height="60" as="geometry" />
        </mxCell>
        <mxCell id="RyjwN8t8nTTDkqUux6qz-10" style="edgeStyle=orthogonalEdgeStyle;rounded=0;orthogonalLoop=1;jettySize=auto;html=1;exitX=1;exitY=0.5;exitDx=0;exitDy=0;entryX=0;entryY=0.5;entryDx=0;entryDy=0;fontSize=24;" edge="1" parent="1" source="RyjwN8t8nTTDkqUux6qz-3" target="RyjwN8t8nTTDkqUux6qz-4">
          <mxGeometry relative="1" as="geometry" />
        </mxCell>
        <mxCell id="RyjwN8t8nTTDkqUux6qz-3" value="&lt;font style=&quot;font-size: 24px;&quot;&gt;保密柜3&lt;/font&gt;" style="rounded=1;whiteSpace=wrap;html=1;" vertex="1" parent="1">
          <mxGeometry x="100" y="420" width="120" height="60" as="geometry" />
        </mxCell>
        <mxCell id="RyjwN8t8nTTDkqUux6qz-11" style="edgeStyle=orthogonalEdgeStyle;rounded=0;orthogonalLoop=1;jettySize=auto;html=1;exitX=1;exitY=0.5;exitDx=0;exitDy=0;entryX=0;entryY=0.5;entryDx=0;entryDy=0;fontSize=24;" edge="1" parent="1" source="RyjwN8t8nTTDkqUux6qz-4" target="RyjwN8t8nTTDkqUux6qz-5">
          <mxGeometry relative="1" as="geometry" />
        </mxCell>
        <mxCell id="RyjwN8t8nTTDkqUux6qz-12" style="edgeStyle=orthogonalEdgeStyle;rounded=0;orthogonalLoop=1;jettySize=auto;html=1;exitX=1;exitY=0.5;exitDx=0;exitDy=0;entryX=0;entryY=0.5;entryDx=0;entryDy=0;fontSize=24;" edge="1" parent="1" source="RyjwN8t8nTTDkqUux6qz-4" target="RyjwN8t8nTTDkqUux6qz-6">
          <mxGeometry relative="1" as="geometry" />
        </mxCell>
        <mxCell id="RyjwN8t8nTTDkqUux6qz-4" value="&lt;span style=&quot;font-size: 24px;&quot;&gt;消息队列&lt;/span&gt;" style="rounded=1;whiteSpace=wrap;html=1;" vertex="1" parent="1">
          <mxGeometry x="354" y="310" width="120" height="60" as="geometry" />
        </mxCell>
        <mxCell id="RyjwN8t8nTTDkqUux6qz-5" value="&lt;span style=&quot;font-size: 24px;&quot;&gt;用户A&lt;/span&gt;" style="rounded=1;whiteSpace=wrap;html=1;" vertex="1" parent="1">
          <mxGeometry x="580" y="230" width="120" height="60" as="geometry" />
        </mxCell>
        <mxCell id="RyjwN8t8nTTDkqUux6qz-6" value="&lt;span style=&quot;font-size: 24px;&quot;&gt;用户B&lt;/span&gt;" style="rounded=1;whiteSpace=wrap;html=1;" vertex="1" parent="1">
          <mxGeometry x="580" y="390" width="120" height="60" as="geometry" />
        </mxCell>
      </root>
    </mxGraphModel>
  </diagram>
</mxfile>
